<?xml version="1.0" encoding="utf-8"?>
<!-- Generator: Adobe Illustrator 19.0.0, SVG Export Plug-In . SVG Version: 6.00 Build 0)  -->
<svg version="1.1" xmlns="http://www.w3.org/2000/svg" xmlns:xlink="http://www.w3.org/1999/xlink" x="0px" y="0px"
	 viewBox="0 0 612 480" style="enable-background:new 0 0 612 480;" xml:space="preserve">
<style type="text/css">
	.st0{fill:#F2EFDF;}
</style>
<g id="Layer_1">
	<g id="XMLID_89_">
		<path id="XMLID_81_" class="st0" d="M728.7,174.7c0,0-5.1-2.6-14.5-7.4c-9.5-4.8-23.5-11.7-41.5-20.2c-18-8.4-40-18.3-65.6-28.8
			c-25.6-10.5-54.8-21.7-87-32.6c-16.1-5.4-32.9-11.4-50.4-16.8c-17.5-5.4-35.8-10.4-54.9-13c-9.5-1.3-19.3-2.1-29.1-2.1
			c-1.3,0-2.5,0.1-3.8,0.1c-1.3,0-2.4,0.1-3.6,0.2c-2.4,0.1-4.9,0.5-7.3,0.7c-4.9,0.7-9.7,1.7-14.4,3.1c-9.5,2.8-18.5,7.2-26.3,13.4
			c-7.8,6.1-14.2,14.1-18.2,23.3c-4,9.1-5.6,19.4-5,29.6c0.3,5.1,1.1,10.2,2.4,15.2l0.2,0.9c0,0.1,0.1,0.4,0.1,0.4l0.1,0.5l0.6,2
			l1.2,3.9c0.2,0.7,0.4,1.3,0.6,1.9l0.7,1.8c0.5,1.2,0.9,2.4,1.4,3.6c4,9.7,9.5,18.9,16.2,27c3.5,4,7.1,7.9,11.1,11.3
			c1.9,1.8,4.1,3.4,6.2,5.1c1,0.8,2.2,1.6,3.3,2.3c1.1,0.8,2.2,1.6,3.3,2.3c9,5.8,18.8,10.7,29,14.6c10.2,3.9,20.9,7,31.7,9.5
			c21.7,5,44,7.9,66.5,10.3c5.7,0.6,11.6,1.4,17.3,2.5c5.8,1.1,11.5,2.4,17.2,4.1c5.7,1.7,11.4,3.8,16.9,6.5
			c5.5,2.7,10.9,6.1,15.7,10.6c0.3,0.3,0.6,0.6,0.9,0.8l0.9,0.9l1.7,1.9l1.6,2c0.3,0.3,0.5,0.7,0.8,1l0.7,1.1
			c0.5,0.7,0.9,1.5,1.3,2.2l1.1,2.4c0.4,0.8,0.7,1.6,1,2.5c0.3,0.8,0.6,1.7,0.8,2.5c0.4,1.7,0.8,3.5,1,5.2c0.1,0.9,0.2,1.8,0.2,2.6
			l0,2.6l0,1.3c0,0.4-0.1,0.8-0.1,1.3l-0.3,2.5c-0.3,1.7-0.7,3.3-1,4.9c-1.7,6.3-4.5,12-7.7,17.2c-0.8,1.3-1.6,2.6-2.4,3.8l-1.3,1.9
			l-0.3,0.5l-0.4,0.6l-0.6,0.8l-2.5,3.4c-0.9,1.2-2,2.4-2.9,3.5l-1.5,1.8l-1.5,1.6c-1,1.1-2,2.2-3,3.2c-2.1,2-4.2,4.2-6.4,6.1
			c-4.3,4-8.9,7.5-13.5,11c-9.3,6.8-18.9,12.9-28.5,18.4c-4.8,2.8-9.7,5.5-14.5,8.1l-3.6,1.9l-0.9,0.5l-1,0.5l-1.8,0.9
			c-2.4,1.2-4.8,2.5-7.2,3.7l-3.6,1.9l-3.7,1.8c-2.5,1.2-5,2.4-7.4,3.6c-2.5,1.2-4.9,2.3-7.4,3.4c-2.5,1.1-4.9,2.2-7.4,3.3
			c-39.6,17.4-79.5,30-117.9,39.4c-19.2,4.7-38,8.6-56.3,11.8c-2.3,0.4-4.6,0.8-6.8,1.2c-2.3,0.4-4.5,0.7-6.8,1.1
			c-2.3,0.4-4.5,0.7-6.7,1.1c-1.1,0.2-2.3,0.4-3.4,0.5c-1.1,0.2-2.2,0.3-3.3,0.5c-4.3,0.7-8.9,1.3-13.2,1.9c-4.4,0.6-8.7,1.1-13,1.6
			c-34.2,4.1-65.6,6.1-93.3,7.7c-13.8,0.8-27.1,1.4-39.4,1.4c-12.3,0-23.8-0.5-34.2-1.7c-2.6-0.3-5.1-0.6-7.6-0.9
			c-2.5-0.4-4.9-0.8-7.2-1.1c-4.6-0.9-9-1.7-13-2.8c-4-0.9-7.7-2.1-11.1-3.2c-1.7-0.5-3.3-1.1-4.8-1.7c-1.5-0.6-3-1.1-4.3-1.6
			c-2.7-1.1-5-2.2-7.1-3.1c-0.5-0.2-1-0.4-1.5-0.7c-0.5-0.2-0.9-0.5-1.3-0.7c-0.8-0.4-1.6-0.8-2.3-1.2c-2.7-1.4-4.1-2.1-4.1-2.1
			l12.5-21.7c0,0,1.1,0.6,3.3,1.8c0.5,0.3,1.1,0.6,1.8,1c0.3,0.2,0.7,0.4,1.1,0.6c0.4,0.2,0.8,0.4,1.2,0.6c1.7,0.8,3.6,1.7,5.8,2.6
			c1.1,0.4,2.3,0.9,3.6,1.4c1.3,0.5,2.6,1.1,4,1.5c2.9,0.9,5.9,2,9.4,2.9c3.4,1,7.2,1.8,11.3,2.6c2.1,0.4,4.2,0.7,6.3,1.1
			c2.2,0.4,4.5,0.6,6.8,1c9.4,1.2,19.9,1.9,31.6,2.1c11.7,0.2,24.3-0.2,38.1-0.7c27.6-1.1,58.6-2.6,92.1-6c4.2-0.4,8.4-0.9,12.7-1.4
			c4.3-0.5,8.5-1,12.9-1.6c1.1-0.1,2.2-0.3,3.3-0.4c1.1-0.2,2.2-0.3,3.2-0.5c2.2-0.3,4.4-0.6,6.6-1c2.2-0.3,4.4-0.6,6.7-1
			c2.2-0.4,4.5-0.7,6.7-1.1c17.9-2.9,36.4-6.3,55.2-10.6c37.6-8.5,76.8-20.1,115.5-36.4c2.4-1,4.8-2.1,7.2-3.1
			c2.4-1,4.9-2.1,7.2-3.2c2.4-1.1,4.8-2.2,7.2-3.3l3.6-1.7l3.6-1.8c2.4-1.2,4.8-2.4,7.3-3.6l1.8-0.9l0.8-0.4l0.9-0.5l3.6-1.9
			c4.8-2.5,9.6-5,14.3-7.6c9.4-5.2,18.6-10.8,27.3-17c4.3-3.1,8.6-6.4,12.5-9.9c2-1.7,3.9-3.6,5.8-5.4c0.9-0.9,1.8-1.9,2.7-2.8
			l1.4-1.4l1.2-1.4c0.8-1,1.7-1.9,2.5-2.9l2.6-3.3l0.6-0.8c0-0.1,0.3-0.4,0.2-0.2l0.3-0.4l1.1-1.6c0.7-1.1,1.5-2.1,2.1-3.2
			c2.8-4.3,5-8.9,6.3-13.4c1.3-4.5,1.5-9,0.6-13c-0.6-2-1.3-4-2.5-5.9l-0.4-0.7c-0.2-0.2-0.3-0.4-0.5-0.7l-1-1.4l-1.1-1.3l-0.6-0.7
			c-0.2-0.2-0.4-0.4-0.6-0.6c-3.4-3.3-7.6-6.1-12.2-8.5c-4.6-2.4-9.6-4.3-14.7-5.9c-5.1-1.6-10.4-3-15.8-4
			c-5.4-1.1-10.7-1.9-16.3-2.6c-22.6-2.8-45.4-6.1-67.8-11.7c-11.2-2.8-22.2-6.2-33-10.5c-10.7-4.3-21.1-9.6-30.8-16.1
			c-1.2-0.8-2.4-1.7-3.6-2.5c-1.2-0.9-2.4-1.7-3.5-2.6c-2.2-1.8-4.5-3.6-6.7-5.6c-4.4-3.8-8.3-8.2-12-12.6
			c-7.2-9.1-13-19.2-17.2-29.8c-0.5-1.3-1-2.7-1.5-4.1c-0.5-1.4-1-2.8-1.4-4.1l-1.1-3.9l-0.6-2l-0.1-0.5c-0.1-0.4-0.1-0.4-0.2-0.6
			l-0.2-1c-1.4-5.5-2.2-11.2-2.4-16.9c-0.5-11.4,1.5-22.9,6.2-33.2c4.7-10.3,12.1-19.2,20.8-25.8c8.8-6.7,18.7-11.3,29-14.1
			c5.1-1.4,10.3-2.4,15.5-3.1c2.6-0.3,5.2-0.6,7.8-0.7c1.3-0.1,2.6-0.2,3.9-0.2c1.3,0,2.5,0,3.8,0c10.3,0.1,20.2,1.1,30,2.6
			c19.5,3.1,38,8.4,55.5,14.1c17.5,5.8,34.1,12,50.2,17.7c32.1,11.5,61.1,23.3,86.6,34.2c25.5,11,47.3,21.2,65.2,29.9
			c17.9,8.7,31.7,15.9,41.2,20.9C723.7,172,728.7,174.7,728.7,174.7z"/>
	</g>
	<circle id="XMLID_88_" class="st0" cx="134.5" cy="142.1" r="10.2"/>
	<circle id="XMLID_87_" class="st0" cx="158.7" cy="190.3" r="13.5"/>
	<circle id="XMLID_86_" class="st0" cx="119.9" cy="175.9" r="7.6"/>
	<circle id="XMLID_85_" class="st0" cx="140.5" cy="305.8" r="7.6"/>
	<circle id="XMLID_84_" class="st0" cx="37.5" cy="110.4" r="7.6"/>
	<circle id="XMLID_83_" class="st0" cx="262.3" cy="319.2" r="13.5"/>
	<circle id="XMLID_82_" class="st0" cx="60.3" cy="361.4" r="10.5"/>
	<circle id="XMLID_80_" class="st0" cx="97.9" cy="383.6" r="6.7"/>
	<circle id="XMLID_79_" class="st0" cx="301.4" cy="326" r="6.7"/>
	<circle id="XMLID_73_" class="st0" cx="208.5" cy="48.3" r="6.7"/>
	<circle id="XMLID_72_" class="st0" cx="223.3" cy="34.2" r="4.7"/>
	<circle id="XMLID_71_" class="st0" cx="204.3" cy="29.5" r="4.7"/>
	<circle id="XMLID_70_" class="st0" cx="45.1" cy="77.2" r="4.7"/>
	<circle id="XMLID_69_" class="st0" cx="145.2" cy="72.5" r="4.7"/>
	<circle id="XMLID_74_" class="st0" cx="204.3" cy="383.6" r="4.7"/>
	<circle id="XMLID_68_" class="st0" cx="204.3" cy="144.9" r="13.5"/>
</g>
<g id="Layer_2">
</g>
</svg>
